<?xml version="1.0" encoding="utf-8"?>
<!-- Generator: Adobe Illustrator 23.0.2, SVG Export Plug-In . SVG Version: 6.00 Build 0)  -->
<svg version="1.2" baseProfile="tiny" id="Layer_1" xmlns="http://www.w3.org/2000/svg" xmlns:xlink="http://www.w3.org/1999/xlink"
	 x="0px" y="0px" viewBox="0 0 600 205.6" xml:space="preserve">
<g>
	<g>
		<g>
			<g>
				<path fill="#D6D8D9" d="M189.5,108c0.1,15.9,8.1,27.8,21.9,27.8c12.7,0,16.7-6.3,19.3-12.3h16.4c-3.3,10.8-12.3,25.7-36.2,25.7
					c-26.8,0-37.9-21.4-37.9-43.3c0-25.4,12.8-45.3,38.9-45.3c27.6,0,36.7,21.7,36.7,40.4c0,2.6,0,4.8-0.2,7.1L189.5,108L189.5,108z
					 M232.2,96.9c-0.2-13.1-6.6-23.8-20.5-23.8c-14.1,0-20.3,9.9-21.7,23.8H232.2z"/>
				<path fill="#D6D8D9" d="M257.1,62.6h14.3V38h16.3v24.6h18.2v13h-18.2v48c0,7.9,2,11.8,9.5,11.8c1.9,0,4.8-0.1,7-0.7v12.1
					c-3.8,1.4-9,1.6-13.2,1.6c-13.8,0-19.6-7.2-19.6-21.4V75.7h-14.3V62.6L257.1,62.6z"/>
				<path fill="#D6D8D9" d="M331,108c0.1,15.9,8.1,27.8,21.9,27.8c12.7,0,16.7-6.3,19.3-12.3h16.4c-3.3,10.8-12.3,25.7-36.2,25.7
					c-26.8,0-37.9-21.4-37.9-43.3c0-25.4,12.8-45.3,38.9-45.3c27.6,0,36.7,21.7,36.7,40.4c0,2.6,0,4.8-0.2,7.1L331,108L331,108z
					 M373.7,96.9c-0.2-13.1-6.6-23.8-20.5-23.8c-14.1,0-20.3,9.9-21.7,23.8H373.7z"/>
				<path fill="#D6D8D9" d="M408.5,84c0-7.3,0-14.8-0.2-21.3h15.9c0.4,2.5,0.7,10.8,0.7,13.3c3.3-6.9,10.2-15.3,26.2-15.3
					c16,0,28.2,10,28.2,32.3v54.2H463V95c0-12.2-4.6-20.4-17.1-20.4c-14.8,0-21,10.8-21,27.4v45.2h-16.3L408.5,84L408.5,84z"/>
				<path fill="#D6D8D9" d="M509,62.6c10.8,33.4,18.7,59.1,21.1,69.6h0.2c2.1-10.3,11-35.7,22.6-69.6h16.5l-30.9,84.6h-17.8
					l-29.3-84.6H509L509,62.6z"/>
				<path fill="#D6D8D9" d="M583.7,25.4H600v18.7h-6c-5.7,0-10.3-4.6-10.3-10.3V25.4z M583.7,62.6H600v84.6h-16.3V62.6z"/>
			</g>
			<g display="none">
				<path display="inline" fill="#D6D8D9" d="M112.7,54.8H86.9v37.1h24.3c16.8,0,24.2-6.3,24.2-18.7
					C135.4,61.4,127.8,54.8,112.7,54.8z"/>
				<path display="inline" fill="#D6D8D9" d="M57.7-0.7v151.9c0,25.5,20.6,46.1,46.1,46.1h61.5l0,0v-198H57.7z M150.9,128.2v5.1
					c0,7.9-0.3,17.8,1.6,22.7h-16.5c-2.1-5-2.1-13.9-2.1-25v-2.3c0-15.7-4.4-22.6-24.7-22.6H87l0,0v50H70.1V40.6h46.2
					c24,0,36.8,13.1,36.8,31c0,15.1-8.5,24.1-19.1,27.1C142.6,101.2,150.9,108,150.9,128.2z"/>
			</g>
		</g>
	</g>
	<g>
		<path fill="#D6D8D9" d="M79.2,39.6c-5.4,0-8.3,0.7-9.6,1.7c-1.2,1-1.9,3-1.9,7.6v43.4h8.1c9,0,15.1-1.4,19.7-5.1
			c6.9-5.3,9.6-12.2,9.6-21.7C105,46.6,92.6,39.6,79.2,39.6z"/>
		<path fill="#D6D8D9" d="M0,0.7v101.2c0,57.7,46.7,104.4,104.4,104.4h58V0.7H0z M136.3,149.3c-14.6-0.7-22.1-4.6-30.4-16.2
			c-6.1-8.6-12.1-19.3-17.5-27.7c-3.3-5.1-6.4-7.2-15.7-7.2h-5.1v27.5c0,14.8,1.7,16.2,16.2,17.4v5.1H35v-5.1
			c14.6-1.2,16.3-2.5,16.3-17.4V55.8c0-15.1-1.6-16-15.6-17v-5.3h46.2c13.6,0,22.4,1.6,29.3,6.1c7.4,4.6,11.9,12.4,11.9,23.1
			c0,15.3-9.9,24.5-22.8,29.9c3.1,5.8,10.5,17.4,15.9,25.4c6.5,9.3,10.9,13.7,14.6,18.6l11.8,13
			C140.5,149.7,138.4,149.6,136.3,149.3z"/>
	</g>
</g>
</svg>
